<svg width="4189" height="3254" viewBox="0 0 4189 3254" fill="none" xmlns="http://www.w3.org/2000/svg">
<path d="M3479.59 1630.29L3320 288.083H3203.3C3139.36 288.083 3090.1 344.467 3098.69 407.824L3264.32 1630.29H3479.59Z" fill="#363C4C"/>
<path fill-rule="evenodd" clip-rule="evenodd" d="M586.568 2339.09C415.824 2339.09 277.409 2476.39 277.409 2645.76C277.409 2815.13 415.824 2952.43 586.568 2952.43C757.311 2952.43 895.727 2815.13 895.727 2645.76C895.727 2476.39 757.311 2339.09 586.568 2339.09ZM586.591 2439.63C471.387 2439.63 377.996 2533.02 377.996 2648.22C377.996 2763.43 471.387 2856.82 586.591 2856.82C701.794 2856.82 795.185 2763.43 795.185 2648.22C795.185 2533.02 701.794 2439.63 586.591 2439.63Z" fill="#DC4908"/>
<path fill-rule="evenodd" clip-rule="evenodd" d="M1573.23 1314.03L1573.17 1313.89C1611.84 1302.84 1650.38 1291.15 1688.92 1279.45C1786.91 1249.72 1884.91 1219.98 1984.88 1200.91L1984.96 1200.9C1988.93 1200.14 2002.12 1197.63 2015 1188C2040.27 1169.13 2051.59 1132.3 2047.26 1099.82C2041.89 1059.52 2013.16 1018.07 1980.08 1018.09C1971.74 1018.09 1963.99 1018.11 1957.27 1018.13C1944.87 1018.16 1935.99 1018.18 1933.41 1018.09C1786.25 1012.95 1717.32 1014.17 1640.55 1015.54C1535.48 1017.4 1415.72 1019.53 1060.58 1005.96C1047.49 1005.46 1034.54 1009.04 1023.58 1016.22L1012.12 1023.74C997.176 1033.53 987.156 1049.18 984.354 1066.82C981.418 1085.27 980.768 1105.91 984.75 1127.78C1011.21 1273.15 1216.39 1331.41 1242.85 1338.56C1296.65 1353.1 1343.61 1354.86 1375.76 1353.8C1377.3 1353.75 1378.83 1355.21 1380.35 1356.66C1381.97 1358.21 1383.59 1359.76 1385.21 1359.45C1387.93 1358.95 1390.65 1358.4 1393.37 1357.85C1395.18 1357.48 1397 1357.11 1398.81 1356.75L1399.84 1359.58L1573.23 1314.03Z" fill="#363C4C"/>
<rect width="231.558" height="475.948" transform="matrix(-0.991184 0.132494 0.132494 0.991184 3350.01 549.411)" fill="#DC4908"/>
<path fill-rule="evenodd" clip-rule="evenodd" d="M3613.26 2369.25C3442.52 2369.25 3304.11 2506.55 3304.11 2675.92C3304.11 2845.29 3442.52 2982.59 3613.26 2982.59C3784.01 2982.59 3922.42 2845.29 3922.42 2675.92C3922.42 2506.55 3784.01 2369.25 3613.26 2369.25ZM3613.29 2469.79C3498.09 2469.79 3404.7 2563.18 3404.7 2678.38C3404.7 2793.59 3498.09 2886.98 3613.29 2886.98C3728.49 2886.98 3821.88 2793.59 3821.88 2678.38C3821.88 2563.18 3728.49 2469.79 3613.29 2469.79Z" fill="#DC4908"/>
<path fill-rule="evenodd" clip-rule="evenodd" d="M3610.75 3254C3291.47 3254 3032.65 2995.17 3032.65 2675.9C3032.65 2356.62 3291.47 2097.8 3610.75 2097.8C3930.03 2097.8 4188.85 2356.62 4188.85 2675.9C4188.85 2995.17 3930.03 3254 3610.75 3254ZM3611.91 3019.04C3423.04 3019.04 3269.94 2865.93 3269.94 2677.06C3269.94 2488.19 3423.04 2335.09 3611.91 2335.09C3800.78 2335.09 3953.89 2488.19 3953.89 2677.06C3953.89 2865.93 3800.78 3019.04 3611.91 3019.04Z" fill="#363C4C"/>
<path fill-rule="evenodd" clip-rule="evenodd" d="M589.084 3233.89C264.254 3233.89 0.927856 2970.57 0.927856 2645.74C0.927856 2320.91 264.254 2057.58 589.084 2057.58C913.914 2057.58 1177.24 2320.91 1177.24 2645.74C1177.24 2970.57 913.914 3233.89 589.084 3233.89ZM590.27 2994.84C398.117 2994.84 242.347 2839.07 242.347 2646.92C242.347 2454.77 398.117 2299 590.27 2299C782.423 2299 938.194 2454.77 938.194 2646.92C938.194 2839.07 782.423 2994.84 590.27 2994.84Z" fill="#363C4C"/>
<path d="M2273.12 2472.3L2094.66 2012.75L3170.43 1550.85L3203.11 1522.48C3199.76 1456.47 3200.14 1433.2 3203.11 1404.98C3287.84 1325.83 3434.79 1313.5 3509.75 1358.83C3549.72 1554.99 3588.79 1671.83 3595.21 1962.07C3521.47 2045.65 3393.41 2065.5 3316.21 2065.42C3303.41 2053.41 3296.6 2043.89 3286.05 2012.75L3213.16 2065.42L2273.12 2472.3Z" fill="#363C4C"/>
<path d="M3376.54 2140.53L3582.65 2728.68H3680.67L3582.65 2140.53L3502.21 1992.23L3376.54 2029.93V2140.53Z" fill="#363C4C"/>
<path fill-rule="evenodd" clip-rule="evenodd" d="M558.922 2613.06L1564.32 2029.93L1365.75 1523.46L1291.29 1333.54L1634.07 1262.69L1806.87 1548.6L2152.47 2120.42C2185.6 2131.88 2203.33 2135.08 2232.91 2132.98L2273.12 2472.3C2186.29 2491.16 2170.27 2509.53 2152.47 2590.44L1843.31 2668.36L1732.72 2590.44L631.813 2763.87L558.922 2613.06ZM830.378 2595.47L1519.07 2308.93L1634.69 2484.87L830.378 2628.14L830.378 2595.47Z" fill="#363C4C"/>
<path d="M1628.82 1262.63C1620.2 1267.76 1617.39 1278.91 1622.53 1287.52L2067.25 2032.96C2074.59 2045.26 2090.51 2049.28 2102.81 2041.94C2108.56 2038.52 2112.75 2033 2114.53 2026.55L2119.63 2008.02C2113.64 2009.33 2109.13 2010 2105.22 2009.94C2095.17 2009.8 2087.97 2001.06 2082.84 1992.41L1653.74 1268.96C1648.61 1260.32 1637.44 1257.48 1628.82 1262.63Z" fill="#DC4908"/>
<path d="M1979.31 2091L1803 2344.91H1918.35L1876.15 2551L2054.8 2293.57L1928.9 2292.16L1979.31 2091Z" fill="#FFC22D"/>
<path d="M2082.09 2711.09L2129.85 2595.47L1838.28 2660.82L1911.17 2736.22L2082.09 2711.09Z" fill="#363C4C"/>
<path fill-rule="evenodd" clip-rule="evenodd" d="M1988.54 2590.44C1950.76 2590.44 1920.13 2620.82 1920.13 2658.3C1920.13 2695.78 1950.76 2726.17 1988.54 2726.17C2026.33 2726.17 2056.96 2695.78 2056.96 2658.3C2056.96 2620.82 2026.33 2590.44 1988.54 2590.44ZM1988.54 2612.69C1963.04 2612.69 1942.38 2633.35 1942.38 2658.85C1942.38 2684.34 1963.04 2705.01 1988.54 2705.01C2014.03 2705.01 2034.7 2684.34 2034.7 2658.85C2034.7 2633.35 2014.03 2612.69 1988.54 2612.69Z" fill="#DC4908"/>
<path fill-rule="evenodd" clip-rule="evenodd" d="M1989.09 2615.61C1965.5 2615.61 1946.37 2634.59 1946.37 2658C1946.37 2681.41 1965.5 2700.39 1989.09 2700.39C2012.69 2700.39 2031.82 2681.41 2031.82 2658C2031.82 2634.59 2012.69 2615.61 1989.09 2615.61ZM1989.1 2629.51C1973.18 2629.51 1960.27 2642.42 1960.27 2658.34C1960.27 2674.26 1973.18 2687.17 1989.1 2687.17C2005.02 2687.17 2017.93 2674.26 2017.93 2658.34C2017.93 2642.42 2005.02 2629.51 1989.1 2629.51Z" fill="#181B22"/>
<path d="M2059.47 2716.11L2031.82 2660.82C1989.6 2696.47 1991.02 2691.66 1947.12 2665.84L1968.99 2733.71L2031.82 2831.73L2082.09 2819.17L2077.07 2768.9L2059.47 2716.11Z" fill="#181B22"/>
<circle cx="3403.27" cy="241.707" r="187.883" transform="rotate(20.4603 3403.27 241.707)" fill="#363C4C"/>
<path d="M3343.18 565.505C3352.7 481.904 3368.97 448.477 3427.08 422.429L3319.93 382.452L3343.18 565.505Z" fill="#363C4C"/>
<path d="M3217.26 1213.6C3189.69 1455.6 3142.61 1552.36 2974.4 1627.76L3284.56 1743.48L3217.26 1213.6Z" fill="#363C4C"/>
<path d="M2068.4 2033.78C2061.38 2017.64 2068.76 1998.86 2084.89 1991.82L3080.28 1557.67C3105.4 1551.49 3200.59 1368.88 3203.12 1306.04C3205.39 1249.78 3240.73 1493.4 3248.1 1545.03C3248.92 1550.71 3245.81 1556.07 3240.55 1558.36L2110.37 2050.29C2094.22 2057.32 2075.43 2049.93 2068.4 2033.78Z" fill="#DC4908"/>
</svg>
