<svg width="4608" height="2877" viewBox="0 0 4608 2877" fill="none" xmlns="http://www.w3.org/2000/svg">
<path fill-rule="evenodd" clip-rule="evenodd" d="M3631.33 1920.06L3634.61 1919.11L3647.78 1960.39C3643.25 1970.67 3640.7 1982.02 3640.7 1993.98C3640.7 2040.11 3678.1 2077.51 3724.23 2077.51C3770.36 2077.51 3807.76 2040.11 3807.76 1993.98C3807.76 1968.17 3796.04 1945.11 3777.65 1929.79L3760.34 1882.81L3762.98 1882.05C3809.85 1898.14 3843.55 1942.58 3843.55 1994.91C3843.55 2060.81 3790.13 2114.24 3724.23 2114.24C3658.32 2114.24 3604.9 2060.81 3604.9 1994.91C3604.9 1966.56 3614.81 1940.53 3631.33 1920.06ZM3724.23 2685.98C3342 2685.98 3032.14 2376.13 3032.14 1993.9C3032.14 1718.28 3193.27 1480.31 3426.45 1368.99L3603.73 1845.83C3560.76 1880.84 3533.31 1934.15 3533.31 1993.9C3533.31 2099.34 3618.78 2184.82 3724.23 2184.82C3829.67 2184.82 3915.15 2099.34 3915.15 1993.9C3915.15 1892.18 3835.6 1809.07 3735.32 1803.32L3565.58 1320.11C3616.53 1308.16 3669.63 1301.81 3724.23 1301.81C4106.46 1301.81 4416.31 1611.67 4416.31 1993.9C4416.31 2376.13 4106.46 2685.98 3724.23 2685.98ZM1755.06 2134.45C1758.88 2110.56 1761.8 2086.37 1763.66 2061.89L1887.5 2063.25L1927.03 2111.2C1933.86 2121.3 1941.63 2130.73 1950.22 2139.33L1755.06 2134.45ZM1850.89 1920.87L1842.1 1925.24L1763.54 1924.56C1762.13 1906.38 1760.12 1888.37 1757.62 1870.51L1781.89 1870.85L1850.89 1920.87ZM1737.18 1748.82C1749.6 1740.58 1757.79 1726.48 1757.79 1710.46C1757.79 1685.04 1737.19 1664.43 1711.76 1664.43L1702.74 1664.61C1665.26 1571.43 1612.36 1486.11 1547.19 1411.83L1719.36 1234.86L1937.22 1799.22L1818.67 1800.6L1737.18 1748.82ZM1562.88 2129.64L976.182 2114.98C978.86 2112.62 981.471 2110.18 983.981 2107.64L984.081 2107.55L984.11 2107.5C999.107 2092.3 1010.97 2074.02 1018.7 2053.69V2053.69L1572.6 2059.78C1570.53 2083.43 1567.27 2106.74 1562.88 2129.64ZM883.237 2690.67C501.005 2690.67 191.151 2380.81 191.151 1998.59C191.151 1730.69 343.376 1498.36 566.037 1383.34L566.203 1383.69L628.344 1355.28L628.22 1355.01C707.142 1323.72 793.175 1306.5 883.237 1306.5C1040.43 1306.5 1185.35 1358.94 1301.54 1447.23L915.016 1849.06C901.857 1845.42 888.006 1843.46 873.691 1843.46C866.331 1843.46 859.105 1844.01 852.017 1845L854.089 1843.46L841.264 1815.73L781.831 1839.78L793.987 1865.49C748.81 1892.62 718.568 1942.06 718.568 1998.59C718.568 2084.26 788.016 2153.71 873.691 2153.71C876.875 2153.71 880.025 2153.58 883.166 2153.39L883.237 2153.71L1552.08 2176.9C1473.43 2472.7 1203.81 2690.67 883.237 2690.67ZM1161.47 1808.26L1411.39 1551.39C1442.01 1587.51 1469.02 1626.78 1491.79 1668.69L1465.37 1669.21C1439.95 1669.21 1419.35 1689.81 1419.35 1715.23C1419.35 1740.65 1439.95 1761.26 1465.37 1761.26L1533.07 1759.94C1538.35 1774.33 1543.13 1788.95 1547.47 1803.76L1161.47 1808.26ZM1109.74 1861.42L1562.92 1867.78C1566.39 1885.91 1569.16 1904.28 1571.18 1922.89L1051.06 1918.35L1109.74 1861.42ZM1667.2 1059.96L1435.72 1305.12C1284.45 1183.63 1092.35 1110.89 883.237 1110.89C788.598 1110.89 697.456 1125.81 611.997 1153.38L550.702 1175.71C550.101 1175.95 549.5 1176.2 548.899 1176.44C547.989 1176.82 547.08 1177.19 546.172 1177.57L546.09 1177.39L544.354 1178.02L483.498 1206.66L482.337 1206.32L482.586 1206.81L482.591 1206.82C196.296 1352.85 0.230469 1650.47 0.230469 1993.9C0.230469 2481.57 395.565 2876.91 883.237 2876.91C1305.78 2876.91 1658.93 2580.09 1745.74 2183.61L2073.3 2194.96C2077.29 2195.2 2081.3 2195.38 2085.35 2195.38C2147.41 2195.38 2202.52 2165.76 2237.39 2119.89L2415.88 2218.44L2419.79 2218.33C2402.49 2225.53 2390.31 2242.59 2390.31 2262.5C2390.31 2288.93 2411.73 2310.35 2438.16 2310.35L2694.31 2305.39C2720.73 2305.39 2742.15 2283.97 2742.15 2257.55C2742.15 2231.12 2720.73 2209.7 2694.31 2209.7L2569.57 2212.11L2279.51 2051.05V1963.09L3241.27 937.231L3320.15 1086.22C3290.76 1100.08 3266.48 1133.87 3265.37 1165.84C3264.8 1182.41 3270.25 1205.03 3287.74 1221.49C3021.06 1373.44 2841.22 1660.31 2841.22 1989.21C2841.22 2476.88 3236.56 2872.21 3724.23 2872.21C4211.9 2872.21 4607.24 2476.88 4607.24 1989.21C4607.24 1501.53 4211.9 1106.2 3724.23 1106.2C3646.92 1106.2 3571.95 1116.17 3500.5 1134.82L3419.24 903.481C3434.05 890.517 3439.45 869.816 3432.85 851.273L3322.49 541.099C3319.82 533.61 3313.85 527.764 3306.31 525.248L3305.74 525.057C3284.29 517.907 3267.84 500.62 3261.83 478.883C3247.17 425.879 3219.36 326.829 3208.73 289.003C3206.11 279.677 3209.05 269.697 3216.29 263.258L3265.82 219.236L3265.65 219.141C3305.44 201.214 3333.17 161.23 3333.17 114.75C3333.17 51.5271 3281.92 0.279297 3218.69 0.279297C3155.48 0.279297 3104.22 51.5271 3104.22 114.75C3104.22 120.435 3104.65 126.024 3105.46 131.489L3103.2 130.253L3060.06 145.76C3057.02 147.374 3039.85 158.934 3037.48 161.435C3006.47 194.073 3010.54 231.951 3025.64 274.675L3130.37 544.803C3136.44 561.981 3134.06 581.021 3123.96 596.18C3118.71 604.055 3118.08 614.141 3122.31 622.603L3140.02 658.01L2946.37 880.637C2946.37 880.637 2774.42 738.745 2721.7 771.197C2475.2 922.911 2413.04 977.811 2294.17 1164.97C2246.1 1240.66 2385.2 1489.53 2385.2 1489.53L2105.98 1776.6L1817.55 1004.74L1786.87 977.119L1577.51 424.437C1605.04 416.571 1632.48 408.242 1659.93 399.913L1659.94 399.911C1729.72 378.737 1799.5 357.562 1870.69 343.984L1870.74 343.973C1873.57 343.435 1882.96 341.646 1892.13 334.791C1910.13 321.35 1918.19 295.122 1915.1 271.997C1911.28 243.297 1890.82 213.781 1867.27 213.795C1861.33 213.799 1855.8 213.812 1851.02 213.823C1842.19 213.845 1835.87 213.86 1834.04 213.795C1729.24 210.134 1680.15 211.006 1625.49 211.978H1625.48C1550.66 213.307 1465.38 214.823 1212.48 205.156C1203.16 204.798 1193.94 207.351 1186.14 212.463L1177.97 217.819C1167.33 224.787 1160.2 235.937 1158.2 248.5C1156.11 261.635 1155.65 276.331 1158.48 291.906C1177.33 395.427 1323.43 436.914 1342.28 442.007C1380.59 452.36 1414.03 453.61 1436.93 452.856C1438.02 452.819 1439.11 453.859 1440.19 454.894C1441.35 455.999 1442.5 457.099 1443.65 456.885C1445.59 456.526 1447.53 456.132 1449.47 455.738C1450.1 455.609 1450.73 455.48 1451.37 455.353C1452.03 455.22 1452.68 455.089 1453.34 454.961L1636.52 958.709L1626.32 958.659L1634.39 959.655L1664.82 1059.89L1661.71 1059.94L1667.2 1059.96Z" fill="#363C4C"/>
<path d="M2719.31 865.638L2462.93 1234.86H2630.67L2569.3 1534.54L2829.09 1160.2L2646.02 1158.16L2719.31 865.638Z" fill="#FFC22D"/>
<path fill-rule="evenodd" clip-rule="evenodd" d="M3724.98 1811.64C3824.82 1811.64 3905.75 1891.92 3905.75 1990.96C3905.75 2090 3824.82 2170.28 3724.98 2170.28C3625.13 2170.28 3544.2 2090 3544.2 1990.96C3544.2 1891.92 3625.13 1811.64 3724.98 1811.64ZM3724.61 1845.1C3804.96 1845.1 3870.1 1910.24 3870.1 1990.6C3870.1 2070.95 3804.96 2136.09 3724.61 2136.09C3644.25 2136.09 3579.11 2070.95 3579.11 1990.6C3579.11 1910.24 3644.25 1845.1 3724.61 1845.1Z" fill="#DC4908"/>
<path fill-rule="evenodd" clip-rule="evenodd" d="M879.067 1811.64C978.908 1811.64 1059.84 1891.92 1059.84 1990.96C1059.84 2090 978.908 2170.28 879.067 2170.28C779.226 2170.28 698.289 2090 698.289 1990.96C698.289 1891.92 779.226 1811.64 879.067 1811.64ZM878.701 1845.1C959.056 1845.1 1024.2 1910.24 1024.2 1990.6C1024.2 2070.95 959.056 2136.09 878.701 2136.09C798.347 2136.09 733.206 2070.95 733.206 1990.6C733.206 1910.24 798.347 1845.1 878.701 1845.1Z" fill="#DC4908"/>
<path d="M3045.05 315.834C3046 314.402 3047.42 313.347 3049.07 312.854L3195.26 269.088C3199.11 267.935 3203.14 270.231 3204.12 274.131L3257.15 445.154C3260.63 456.386 3254.43 468.33 3243.24 471.95L3131.49 508.109C3120.4 511.699 3108.46 505.778 3104.61 494.77L3044.24 322.325C3043.48 320.154 3043.78 317.752 3045.05 315.834Z" fill="#DC4908"/>
<path d="M3258.68 964.487C3259.59 962.596 3261.21 961.136 3263.18 960.418L3415.8 904.864C3416.15 904.739 3416.51 904.676 3416.87 904.676C3418.18 904.676 3419.35 905.493 3419.8 906.722L3496.71 1116.02C3500.74 1126.98 3495.28 1139.14 3484.41 1143.42L3371.7 1187.75C3360.82 1192.03 3348.51 1186.83 3344.01 1176.04L3258.51 971.07C3257.62 968.951 3257.69 966.556 3258.68 964.487Z" fill="#DC4908"/>
<rect x="3622.95" y="1826.75" width="103.813" height="68.0154" transform="rotate(-16.4719 3622.95 1826.75)" fill="#363C4C"/>
<path d="M1577.12 422.691L1453.62 454.909L1637.97 959.655L1782.95 968.604L1609.34 510.395L1593.23 467.438L1582.49 437.01L1577.12 422.691Z" fill="#DC4908"/>
<path d="M2572.29 2214.36L2280.54 2053.27L2239.38 2119.5L2418.36 2219.73L2572.29 2214.36Z" fill="#DC4908"/>
<path d="M1818.75 1800.9L1736.42 1748.99H1731.05V1800.9H1818.75Z" fill="#DC4908"/>
<rect x="1742.66" y="1351.35" width="221.362" height="338.927" rx="53.6964" transform="rotate(-19.3445 1742.66 1351.35)" fill="#DC4908"/>
</svg>
