<svg width="468" height="397" viewBox="0 0 468 397" fill="none" xmlns="http://www.w3.org/2000/svg">
<path d="M462.576 332.837C462.576 333.197 462.573 333.559 462.571 333.922C462.569 334.057 462.569 334.196 462.566 334.331C462.566 334.358 462.566 334.386 462.564 334.415C462.559 334.81 462.55 335.203 462.54 335.599C462.528 336.061 462.514 336.519 462.495 336.976C462.481 337.338 462.467 337.7 462.448 338.062C462.443 338.198 462.433 338.334 462.426 338.472C462.407 338.83 462.388 339.187 462.365 339.542C462.36 339.64 462.355 339.742 462.346 339.842C462.327 340.128 462.308 340.409 462.287 340.693C462.279 340.8 462.27 340.907 462.263 341.012C462.246 341.243 462.227 341.474 462.206 341.705C462.161 342.282 462.111 342.858 462.054 343.435C462.038 343.599 462.023 343.769 462.004 343.933C461.877 345.222 461.73 346.499 461.559 347.764C461.509 348.164 461.452 348.562 461.398 348.96C461.36 349.227 461.32 349.494 461.282 349.761C461.23 350.118 461.175 350.473 461.118 350.828C461.068 351.166 461.011 351.505 460.957 351.845C460.895 352.212 460.836 352.582 460.772 352.949C460.72 353.253 460.665 353.554 460.611 353.856C460.528 354.314 460.443 354.771 460.355 355.229C460.326 355.383 460.296 355.538 460.267 355.693C460.208 355.991 460.149 356.291 460.089 356.587C459.999 357.035 459.907 357.483 459.81 357.93C459.767 358.138 459.722 358.35 459.675 358.557C459.63 358.774 459.582 358.988 459.535 359.205C459.457 359.555 459.381 359.908 459.298 360.253C458.734 362.729 458.118 365.128 457.466 367.43C457.286 368.073 457.103 368.707 456.918 369.333C456.888 369.44 456.857 369.543 456.826 369.648C456.738 369.938 456.651 370.227 456.565 370.515C456.539 370.601 456.513 370.689 456.485 370.775C456.276 371.466 456.06 372.149 455.847 372.819C455.674 373.353 455.506 373.881 455.333 374.401C455.219 374.742 455.108 375.078 454.996 375.409C454.882 375.742 454.771 376.073 454.657 376.397C454.546 376.726 454.432 377.048 454.321 377.37C454.262 377.532 454.207 377.689 454.15 377.851C453.958 378.382 453.771 378.904 453.586 379.416C453.494 379.669 453.401 379.921 453.306 380.169C452.996 380.998 452.688 381.801 452.389 382.578C452.306 382.785 452.226 382.995 452.145 383.2C451.396 385.089 450.678 386.809 450.012 388.336C449.96 388.455 449.905 388.577 449.856 388.694C449.794 388.83 449.737 388.963 449.678 389.094C449.583 389.308 449.491 389.516 449.401 389.721C449.199 390.169 449.005 390.595 448.82 391C448.68 391.305 448.545 391.596 448.415 391.874C448.317 392.079 448.223 392.279 448.13 392.472C448.064 392.611 448 392.744 447.938 392.875C447.808 393.142 447.687 393.394 447.573 393.633C447.478 393.826 447.388 394.009 447.303 394.183C446.985 394.826 446.725 395.336 446.533 395.703C446.495 395.772 446.462 395.837 446.431 395.896C446.362 396.03 446.303 396.137 446.26 396.215C446.189 396.344 446.154 396.408 446.154 396.408L403.848 396.373L394.891 396.368L192.483 396.208L139.055 396.165L32.2953 396.08C32.2953 396.08 32.2313 396.015 32.1128 395.884C32.0227 395.789 31.8971 395.656 31.7431 395.484C31.6625 395.396 31.5748 395.296 31.4776 395.186C31.461 395.169 31.4492 395.158 31.435 395.141C31.3402 395.031 31.2359 394.915 31.1245 394.786C31.0534 394.702 30.9775 394.614 30.897 394.521C30.3376 393.871 29.6266 393.016 28.7995 391.963C28.643 391.765 28.4842 391.56 28.3207 391.348C28.0955 391.057 27.8609 390.752 27.6239 390.433C27.5386 390.321 27.4533 390.207 27.3656 390.09C26.3844 388.777 25.2965 387.252 24.1352 385.515C24.0546 385.396 23.974 385.275 23.8934 385.153C22.4335 382.959 20.8692 380.438 19.2576 377.596C19.0774 377.279 18.8997 376.957 18.7196 376.636C18.5394 376.314 18.3593 375.985 18.1792 375.654C17.7715 374.908 17.3615 374.139 16.9539 373.35C16.8164 373.088 16.6813 372.824 16.5415 372.554C16.4159 372.311 16.2926 372.066 16.167 371.818C15.584 370.658 14.9962 369.457 14.4132 368.213C14.3041 367.982 14.1951 367.744 14.0861 367.506C13.4059 366.038 12.7328 364.516 12.0692 362.936C11.9364 362.619 11.8037 362.302 11.671 361.981C11.5643 361.723 11.4577 361.466 11.3534 361.204C10.5642 359.257 9.79154 357.23 9.0426 355.121C8.9075 354.743 8.77478 354.359 8.64205 353.975C8.35765 353.156 8.08035 352.327 7.80542 351.483C7.69166 351.14 7.58027 350.792 7.46887 350.442C7.34089 350.042 7.21528 349.639 7.08966 349.234C6.96405 348.834 6.84318 348.429 6.71993 348.024C6.71756 348.017 6.71519 348.005 6.70808 347.995C6.58958 347.59 6.46634 347.185 6.3502 346.773C6.24829 346.435 6.15349 346.092 6.05631 345.751C6.01839 345.62 5.98284 345.489 5.94492 345.355C5.84064 344.988 5.7411 344.619 5.63918 344.247C5.54912 343.916 5.45906 343.583 5.37137 343.247C5.26471 342.851 5.1628 342.458 5.06089 342.058C4.90209 341.441 4.74567 340.819 4.59399 340.192C4.46363 339.663 4.33565 339.135 4.21478 338.596C4.14841 338.322 4.08679 338.046 4.0228 337.772C3.86875 337.086 3.71469 336.392 3.56538 335.694C3.51324 335.439 3.45635 335.177 3.40421 334.917C3.18143 333.841 2.96575 332.749 2.76193 331.641C2.69319 331.275 2.62683 330.903 2.56047 330.531C2.49411 330.16 2.43012 329.788 2.36376 329.411C2.29976 329.037 2.23814 328.661 2.17652 328.282C1.93003 326.774 1.70251 325.237 1.49157 323.681C1.23086 321.735 1.00097 319.748 0.801883 317.725C0.763962 317.32 0.726041 316.915 0.68812 316.505C0.652569 316.098 0.617018 315.688 0.581467 315.278C0.515105 314.456 0.451114 313.629 0.396602 312.798C0.31128 311.547 0.240178 310.284 0.180926 309.007C0.161966 308.583 0.143005 308.157 0.128785 307.728C0.0647932 306.077 0.0245021 304.402 0.0102817 302.708C-0.00393867 301.343 0.000801459 299.966 0.0173919 298.574C0.022132 298.167 0.0316123 297.755 0.0387225 297.345C0.0458327 296.935 0.057683 296.523 0.0671633 296.111C0.0908639 295.286 0.116935 294.455 0.152486 293.619V293.616C0.202257 292.396 0.266249 291.167 0.342091 289.93C0.344461 289.871 0.346831 289.814 0.351571 289.752C0.398972 288.977 0.453484 288.201 0.510365 287.419C0.517475 287.298 0.526956 287.176 0.536436 287.055C0.628868 285.832 0.735521 284.601 0.854025 283.357C0.936977 282.485 1.02704 281.603 1.12421 280.722C1.17161 280.279 1.22138 279.836 1.2759 279.39C1.32567 278.947 1.38018 278.501 1.43469 278.053C1.65748 276.252 1.90633 274.427 2.186 272.585C2.24999 272.159 2.31635 271.733 2.38509 271.304C2.65053 269.626 2.93731 267.93 3.25253 266.215C3.3023 265.933 3.35681 265.652 3.40895 265.369C3.47532 265.011 3.54405 264.654 3.61278 264.294C3.68388 263.915 3.75972 263.537 3.83557 263.155C4.26929 260.968 4.7433 258.755 5.25997 256.513C5.31923 256.253 5.37848 255.996 5.4401 255.736C5.54912 255.269 5.66051 254.8 5.77428 254.328C6.01365 253.349 6.25777 252.365 6.509 251.371C6.61091 250.978 6.71045 250.585 6.81474 250.19C6.90006 249.863 6.98775 249.537 7.07544 249.208C7.18684 248.782 7.30297 248.348 7.42147 247.917C7.50679 247.605 7.59449 247.292 7.67981 246.98C7.77698 246.621 7.87889 246.263 7.98081 245.903C8.08272 245.544 8.18463 245.184 8.28892 244.824C8.39083 244.464 8.49511 244.102 8.60176 243.738C8.66339 243.523 8.72738 243.311 8.789 243.094C9.64459 240.188 10.5713 237.238 11.5738 234.25C11.7018 233.869 11.8322 233.488 11.9601 233.107C12.0526 232.833 12.1474 232.554 12.2446 232.278C12.3251 232.039 12.4057 231.804 12.4887 231.568C12.6427 231.127 12.7968 230.681 12.9556 230.238C13.093 229.845 13.2305 229.454 13.3751 229.059C14.0221 227.251 14.6999 225.428 15.4015 223.593C16.513 220.689 17.5653 217.813 18.5513 214.961C19.5183 212.179 20.4236 209.424 21.2769 206.694C21.8765 204.778 22.45 202.877 22.9975 200.988C51.5829 102.325 12.3559 37.2217 93.123 8.17138C179.905 -23.0423 217.826 46.0466 286.845 34.3126C352.346 23.179 423.64 52.1221 424.366 104.864C424.408 107.697 424.245 110.597 423.863 113.563C423.391 117.256 422.889 120.963 422.377 124.675C419.073 148.651 415.279 172.991 415.293 196.418C415.309 226.579 421.64 255.224 443.456 279.626C444.298 280.567 445.106 281.518 445.881 282.478C446.016 282.642 446.149 282.809 446.279 282.976C446.308 283.014 446.338 283.047 446.367 283.085C446.5 283.255 446.635 283.424 446.765 283.595C447.135 284.067 447.493 284.543 447.846 285.02C448.021 285.258 448.197 285.494 448.367 285.732C448.763 286.283 449.149 286.833 449.524 287.388C449.694 287.636 449.86 287.886 450.029 288.139C450.055 288.179 450.078 288.215 450.104 288.255C450.263 288.498 450.42 288.742 450.576 288.985C450.749 289.251 450.915 289.518 451.083 289.787C451.252 290.054 451.415 290.323 451.576 290.593C451.844 291.036 452.107 291.479 452.361 291.925C452.458 292.094 452.555 292.26 452.647 292.43C453.465 293.876 454.224 295.334 454.925 296.804C455.001 296.964 455.079 297.126 455.153 297.29C455.321 297.645 455.484 298.002 455.643 298.36C455.852 298.822 456.056 299.287 456.25 299.749C456.354 299.992 456.454 300.232 456.553 300.473C456.658 300.719 456.755 300.966 456.852 301.214C457.207 302.103 457.544 302.994 457.859 303.887C457.954 304.152 458.044 304.416 458.134 304.681C458.212 304.902 458.286 305.124 458.359 305.348C458.407 305.491 458.454 305.636 458.502 305.779C458.658 306.263 458.81 306.744 458.959 307.228C459.127 307.778 459.286 308.331 459.442 308.881C459.765 310.032 460.056 311.183 460.324 312.338C460.388 312.612 460.452 312.891 460.511 313.165C460.542 313.308 460.575 313.451 460.604 313.594C460.646 313.787 460.687 313.975 460.727 314.168C460.817 314.606 460.905 315.045 460.99 315.485C461.021 315.657 461.054 315.826 461.085 315.998C461.125 316.203 461.161 316.412 461.196 316.617C461.239 316.858 461.282 317.094 461.322 317.334C461.362 317.573 461.402 317.808 461.438 318.047C461.466 318.233 461.495 318.418 461.523 318.602V318.604C461.568 318.902 461.613 319.2 461.656 319.498C461.696 319.779 461.732 320.06 461.77 320.341C461.777 320.377 461.782 320.413 461.786 320.451C461.822 320.727 461.855 321.008 461.891 321.285C461.962 321.88 462.028 322.473 462.09 323.069C462.18 323.963 462.258 324.854 462.32 325.745C462.343 326.059 462.365 326.374 462.384 326.693C462.403 326.969 462.419 327.248 462.431 327.524C462.448 327.786 462.457 328.051 462.471 328.313C462.514 329.23 462.54 330.15 462.557 331.065C462.561 331.306 462.564 331.546 462.566 331.784C462.573 332.139 462.576 332.49 462.576 332.837Z" fill="#EBF2F9"/>
<path d="M462.575 332.838C462.575 333.198 462.572 333.56 462.57 333.922C462.568 334.058 462.568 334.196 462.565 334.332C462.565 334.358 462.565 334.387 462.563 334.415C462.558 334.811 462.549 335.204 462.539 335.6C462.53 336.062 462.513 336.519 462.494 336.977C462.48 337.339 462.466 337.701 462.447 338.063C462.442 338.199 462.433 338.335 462.425 338.473C462.407 338.83 462.388 339.188 462.364 339.543C462.359 339.643 462.354 339.743 462.345 339.845C462.326 340.131 462.307 340.412 462.286 340.696C462.279 340.803 462.269 340.91 462.262 341.015C462.245 341.246 462.229 341.477 462.207 341.708C462.162 342.285 462.113 342.862 462.056 343.438C462.039 343.603 462.025 343.772 462.006 343.936C461.878 345.225 461.731 346.502 461.56 347.767C461.511 348.167 461.454 348.565 461.399 348.963C461.361 349.23 461.321 349.497 461.283 349.764C461.231 350.121 461.176 350.476 461.12 350.831C461.07 351.169 461.013 351.508 460.958 351.848C460.897 352.218 460.838 352.585 460.774 352.954C460.721 353.259 460.667 353.559 460.612 353.862C460.529 354.319 460.444 354.777 460.359 355.232C460.33 355.387 460.3 355.541 460.271 355.696C460.212 355.994 460.153 356.294 460.093 356.59C460.003 357.038 459.911 357.486 459.814 357.933C459.771 358.141 459.726 358.353 459.679 358.56C459.634 358.777 459.586 358.991 459.539 359.208C459.461 359.558 459.385 359.911 459.302 360.256C458.738 362.732 458.121 365.131 457.47 367.433C457.29 368.076 457.107 368.71 456.922 369.336C456.891 369.444 456.861 369.546 456.83 369.651C456.742 369.941 456.654 370.23 456.569 370.518C456.543 370.604 456.517 370.692 456.489 370.778C456.28 371.469 456.067 372.152 455.851 372.822C455.678 373.356 455.51 373.885 455.337 374.404C455.223 374.745 455.111 375.081 455 375.412C454.886 375.745 454.775 376.077 454.661 376.401C454.55 376.729 454.436 377.051 454.325 377.373C454.265 377.535 454.211 377.692 454.154 377.854C453.962 378.385 453.775 378.907 453.59 379.419C453.497 379.672 453.405 379.924 453.31 380.172C453 381.001 452.692 381.804 452.393 382.581C452.31 382.788 452.229 382.998 452.149 383.203C451.4 385.092 450.682 386.812 450.016 388.339C449.964 388.459 449.909 388.58 449.859 388.697C449.798 388.833 449.741 388.966 449.682 389.097C449.589 389.312 449.497 389.519 449.402 389.724C449.201 390.172 449.006 390.598 448.821 391.003C448.682 391.308 448.546 391.599 448.416 391.878C448.319 392.082 448.224 392.283 448.132 392.476C448.068 392.614 448.004 392.747 447.94 392.878C447.809 393.145 447.688 393.398 447.572 393.636C447.477 393.831 447.387 394.012 447.302 394.186C447.098 394.596 446.921 394.951 446.766 395.254C446.679 395.423 446.603 395.573 446.532 395.706C446.494 395.775 446.461 395.84 446.43 395.899C446.361 396.033 446.302 396.14 446.259 396.219L403.849 396.376L394.893 396.411V395.449L192.485 396.211L139.056 396.411V395.487L32.1144 395.89C32.0243 395.794 31.8987 395.661 31.7446 395.489C31.6641 395.401 31.574 395.301 31.4792 395.192C31.4626 395.175 31.4508 395.163 31.4365 395.146C31.3417 395.037 31.2374 394.92 31.1261 394.791C31.055 394.708 30.9767 394.617 30.8985 394.527C30.3392 393.876 29.6282 393.024 28.801 391.968C28.6446 391.77 28.4858 391.565 28.3223 391.353C28.0971 391.063 27.8625 390.758 27.6255 390.438C27.5401 390.326 27.4548 390.212 27.3671 390.095C26.3859 388.783 25.2981 387.258 24.1367 385.521C24.0562 385.402 23.9756 385.28 23.895 385.159C22.435 382.964 20.8708 380.441 19.2591 377.601C19.079 377.287 18.9013 376.965 18.7211 376.641C18.541 376.32 18.3609 375.991 18.1808 375.66C17.7731 374.914 17.3631 374.144 16.9554 373.356C16.818 373.094 16.6829 372.829 16.5431 372.56C16.4174 372.317 16.2942 372.071 16.1686 371.824C15.5855 370.663 14.9978 369.463 14.4147 368.219C14.3057 367.988 14.1967 367.75 14.0877 367.511C13.4075 366.044 12.7344 364.521 12.0707 362.942C11.938 362.625 11.8053 362.305 11.6726 361.986C11.5659 361.729 11.4593 361.472 11.355 361.209C10.5658 359.263 9.79311 357.235 9.04417 355.127C8.90908 354.748 8.77635 354.364 8.64363 353.981C8.35922 353.161 8.08193 352.332 7.807 351.489C7.69324 351.146 7.58184 350.798 7.47045 350.448C7.34247 350.047 7.21685 349.645 7.09124 349.24C6.96563 348.839 6.84475 348.434 6.72151 348.029C6.71914 348.022 6.71677 348.01 6.71203 348.001C6.59353 347.596 6.47028 347.191 6.35415 346.778C6.25224 346.44 6.15743 346.097 6.06026 345.756C6.02234 345.625 5.98679 345.494 5.94887 345.361C5.84459 344.992 5.74504 344.625 5.64313 344.253C5.55307 343.922 5.46301 343.588 5.37531 343.252C5.26866 342.857 5.16675 342.464 5.06484 342.063C4.90604 341.446 4.74962 340.824 4.59793 340.198C4.46758 339.669 4.33959 339.138 4.21872 338.602C4.15236 338.328 4.09074 338.051 4.02675 337.777C3.87269 337.091 3.71864 336.398 3.56932 335.7C3.51718 335.442 3.4603 335.183 3.40816 334.923C3.18537 333.846 2.9697 332.755 2.76587 331.647C2.69714 331.28 2.63078 330.908 2.56442 330.537C2.49806 330.165 2.43406 329.793 2.3677 329.417C2.30371 329.043 2.24209 328.666 2.18047 328.288C1.93161 326.777 1.70171 325.243 1.49552 323.687C1.23244 321.74 1.00255 319.751 0.80583 317.731C0.767909 317.325 0.729988 316.92 0.692067 316.511C0.656516 316.103 0.620965 315.693 0.585415 315.284C0.519053 314.462 0.455061 313.635 0.40055 312.803C0.312857 311.553 0.241755 310.29 0.184874 309.013C0.165913 308.589 0.146953 308.162 0.132732 307.733C0.0663705 306.082 0.0260795 304.407 0.0142292 302.713C-0.00236129 301.351 8.77236e-06 299.971 0.0213393 298.58C0.0260795 298.172 0.0355597 297.76 0.0426699 297.35C0.0497801 296.94 0.0616304 296.528 0.0711107 296.116C0.0948113 295.292 0.120882 294.46 0.156433 293.624V293.622C0.203834 292.402 0.267826 291.172 0.343668 289.936C0.346038 289.876 0.348408 289.819 0.353148 289.757C0.40055 288.983 0.450321 288.206 0.511943 287.425C0.519053 287.303 0.528533 287.182 0.538013 287.06C0.630446 285.835 0.737099 284.606 0.855602 283.362C0.938554 282.49 1.02862 281.609 1.12579 280.727C1.17319 280.284 1.22296 279.841 1.27747 279.395C1.32724 278.952 1.38176 278.507 1.43627 278.059C1.65905 276.258 1.90791 274.433 2.18758 272.591C2.25157 272.164 2.31793 271.738 2.38666 271.309C2.65211 269.632 2.93889 267.935 3.25411 266.22C3.30388 265.939 3.35839 265.658 3.41053 265.374C3.47689 265.017 3.54562 264.659 3.61436 264.3C3.68546 263.921 3.7613 263.542 3.83714 263.161C4.27086 260.974 4.74488 258.76 5.26155 256.518C5.3208 256.259 5.38005 256.001 5.44167 255.742C5.5507 255.275 5.66209 254.805 5.77585 254.334C6.01286 253.354 6.25698 252.368 6.51057 251.377C6.61249 250.984 6.71203 250.591 6.81631 250.195C6.90163 249.869 6.98933 249.542 7.07702 249.213C7.18841 248.787 7.30454 248.356 7.42305 247.922C7.50837 247.61 7.59606 247.298 7.68139 246.986C7.77856 246.626 7.88047 246.269 7.98238 245.909C8.0843 245.549 8.18621 245.189 8.29049 244.83C8.3924 244.47 8.49669 244.105 8.60334 243.743C8.66496 243.529 8.72895 243.317 8.79058 243.1C9.64617 240.193 10.5729 237.244 11.5754 234.256C11.7034 233.875 11.8337 233.493 11.9617 233.112C12.0542 232.838 12.1513 232.56 12.2461 232.283C12.3267 232.045 12.4073 231.809 12.4902 231.573C12.6443 231.132 12.7984 230.687 12.9571 230.244C13.0946 229.851 13.2321 229.46 13.3766 229.064C14.0237 227.256 14.7015 225.433 15.4031 223.599C16.5146 220.694 17.5669 217.819 18.5529 214.967L21.2784 206.699C21.8781 204.784 22.4516 202.883 22.9991 200.993L37.9471 200.996H44.069V228.809H63.9111V239.045H74.9414V233.1H85.173V209.506H90.271V198.489H91.0413V209.499H103.271V188.864H104.468V209.499H112.557V209.211H112.547V206.595H112.557V204.117H112.547V199.99H112.557V197.357H112.547V193.233H112.557V190.601H112.547V186.479H112.557V183.632H112.547V179.508H112.557V175.884H112.547V171.762H112.557V169.029H114.967V165.944H115.353V169.029H133.207V165.944H133.591V169.029H136.85V190.596L139.142 190.613V190.596H139.123V186.474H139.142V183.627H139.123V179.503H139.142V176.668H139.123V172.546H139.142V172.531H160.792V172.546H164.516C164.708 172.655 164.897 172.763 165.092 172.875V196.414H180.921V227.327H193.703V170.163H196.488V166.168H196.985V170.163H207.082V166.168H207.58V170.163H221.878V166.168H222.381V170.163H231.377V166.168H231.88V170.163H235.575V223.525H249.708V214.895L266.376 214.972V200.986H269.73V198.22H270.173V200.986H283.042V200.988H285.614V198.22H286.057V200.988H289.162V228.802H309.007V239.038H320.037V233.093H330.264V209.499H335.366V198.489H336.137V209.499H348.361V188.864H349.563V209.499H357.652V209.211H357.636V206.595H357.652V204.117H357.636V199.99H357.652V197.357H357.636V193.233H357.652V190.601H357.636V186.479H357.652V183.632H357.636V179.508H357.652V175.884H357.636V171.762H357.652V169.029H360.062V165.944H360.449V169.029H378.3V165.944H378.686V169.029H381.943V190.596L384.204 190.613H384.239V190.596H384.221V186.474H384.239V183.627H384.221V179.503H384.239V176.668H384.221V172.546H384.239V172.531H405.89V172.546H409.611C409.803 172.655 409.993 172.763 410.187 172.875V196.414H415.29C415.306 224.978 420.985 252.184 440.121 275.712C441.187 277.027 442.299 278.333 443.453 279.624C444.295 280.565 445.103 281.516 445.878 282.476C446.013 282.64 446.146 282.807 446.276 282.974C446.304 283.012 446.335 283.046 446.364 283.084C446.496 283.253 446.631 283.422 446.762 283.594C447.131 284.065 447.489 284.539 447.842 285.018C448.018 285.257 448.193 285.492 448.362 285.731C448.757 286.281 449.144 286.831 449.518 287.386C449.689 287.634 449.855 287.884 450.023 288.137C450.049 288.178 450.073 288.216 450.099 288.254C450.258 288.497 450.414 288.74 450.57 288.983C450.743 289.25 450.909 289.517 451.078 289.786C451.246 290.053 451.409 290.322 451.571 290.591C451.838 291.034 452.102 291.477 452.355 291.923C452.452 292.092 452.549 292.259 452.642 292.428C453.46 293.874 454.218 295.332 454.92 296.802C454.998 296.962 455.074 297.124 455.147 297.288C455.315 297.643 455.479 298.001 455.638 298.358C455.846 298.82 456.05 299.283 456.244 299.747C456.349 299.99 456.448 300.231 456.548 300.471C456.652 300.717 456.749 300.965 456.846 301.212C457.202 302.101 457.538 302.992 457.854 303.886C457.948 304.15 458.039 304.415 458.131 304.679C458.207 304.901 458.283 305.122 458.356 305.346C458.403 305.489 458.451 305.634 458.501 305.777C458.657 306.261 458.809 306.742 458.956 307.226C459.124 307.776 459.283 308.327 459.439 308.879C459.762 310.03 460.053 311.181 460.321 312.336C460.385 312.61 460.449 312.889 460.508 313.163C460.539 313.306 460.572 313.449 460.601 313.592C460.643 313.785 460.684 313.973 460.721 314.166C460.812 314.605 460.899 315.043 460.985 315.484C461.015 315.655 461.049 315.825 461.079 315.996C461.12 316.201 461.158 316.411 461.191 316.616C461.233 316.856 461.276 317.092 461.316 317.333C461.357 317.571 461.397 317.807 461.432 318.045C461.461 318.231 461.489 318.417 461.518 318.6V318.603C461.563 318.9 461.608 319.198 461.65 319.496C461.691 319.777 461.726 320.058 461.764 320.339C461.771 320.375 461.774 320.411 461.781 320.449C461.816 320.725 461.85 321.007 461.885 321.283C461.956 321.879 462.023 322.472 462.084 323.067C462.177 323.958 462.252 324.852 462.314 325.743C462.338 326.057 462.359 326.372 462.378 326.689C462.397 326.968 462.411 327.244 462.425 327.52C462.442 327.782 462.452 328.047 462.466 328.309C462.508 329.226 462.535 330.146 462.551 331.063C462.556 331.304 462.558 331.542 462.561 331.783C462.572 332.14 462.575 332.488 462.575 332.838Z" fill="#D5E5FB"/>
<path d="M235.58 170.166H203.636V179.21H235.58V170.166Z" fill="#E2EEFD"/>
<path d="M372.6 169.034H357.695V174.528H372.6V169.034Z" fill="#E2EEFD"/>
<path d="M372.6 177.487H357.695V182.981H372.6V177.487Z" fill="#E2EEFD"/>
<path d="M372.6 186.119H357.695V191.613H372.6V186.119Z" fill="#E2EEFD"/>
<path d="M372.6 194.889H357.695V200.383H372.6V194.889Z" fill="#E2EEFD"/>
<path d="M372.6 203.349H357.695V208.844H372.6V203.349Z" fill="#E2EEFD"/>
<path d="M372.6 212.663H357.695V218.157H372.6V212.663Z" fill="#E2EEFD"/>
<path d="M372.6 221.116H357.695V226.61H372.6V221.116Z" fill="#E2EEFD"/>
<path d="M372.6 229.748H357.695V235.242H372.6V229.748Z" fill="#E2EEFD"/>
<path d="M372.6 238.518H357.695V244.012H372.6V238.518Z" fill="#E2EEFD"/>
<path d="M372.6 246.979H357.695V252.473H372.6V246.979Z" fill="#E2EEFD"/>
<path d="M128.379 169.034H112.407V174.528H128.379V169.034Z" fill="#E2EEFD"/>
<path d="M128.379 177.487H112.407V182.981H128.379V177.487Z" fill="#E2EEFD"/>
<path d="M128.379 186.119H112.407V191.613H128.379V186.119Z" fill="#E2EEFD"/>
<path d="M128.379 194.889H112.407V200.383H128.379V194.889Z" fill="#E2EEFD"/>
<path d="M128.379 203.349H112.407V208.844H128.379V203.349Z" fill="#E2EEFD"/>
<path d="M128.379 212.663H112.407V218.157H128.379V212.663Z" fill="#E2EEFD"/>
<path d="M128.379 221.116H112.407V226.61H128.379V221.116Z" fill="#E2EEFD"/>
<path d="M128.379 229.748H112.407V235.242H128.379V229.748Z" fill="#E2EEFD"/>
<path d="M128.379 238.518H112.407V244.012H128.379V238.518Z" fill="#E2EEFD"/>
<path d="M128.379 246.979H112.407V252.473H128.379V246.979Z" fill="#E2EEFD"/>
<path d="M157.607 172.634H139.455V178.128H157.607V172.634Z" fill="#E2EEFD"/>
<path d="M157.607 181.089H139.455V186.583H157.607V181.089Z" fill="#E2EEFD"/>
<path d="M157.607 189.721H139.455V195.216H157.607V189.721Z" fill="#E2EEFD"/>
<path d="M157.607 198.491H139.455V203.986H157.607V198.491Z" fill="#E2EEFD"/>
<path d="M157.607 206.952H139.455V212.446H157.607V206.952Z" fill="#E2EEFD"/>
<path d="M157.607 215.772H139.455V221.266H157.607V215.772Z" fill="#E2EEFD"/>
<path d="M157.607 224.228H139.455V229.722H157.607V224.228Z" fill="#E2EEFD"/>
<path d="M157.607 232.86H139.455V238.354H157.607V232.86Z" fill="#E2EEFD"/>
<path d="M157.607 241.63H139.455V247.124H157.607V241.63Z" fill="#E2EEFD"/>
<path d="M157.607 250.09H139.455V255.584H157.607V250.09Z" fill="#E2EEFD"/>
<path opacity="0.7" d="M462.575 332.838C462.575 333.198 462.573 333.56 462.57 333.922C462.568 334.058 462.568 334.196 462.565 334.332C462.565 334.358 462.565 334.387 462.563 334.415C462.558 334.811 462.549 335.204 462.539 335.6C462.53 336.062 462.513 336.519 462.494 336.977C462.48 337.339 462.466 337.701 462.447 338.063C462.442 338.199 462.433 338.335 462.426 338.473C462.407 338.83 462.388 339.188 462.364 339.543C462.359 339.643 462.355 339.743 462.345 339.845C462.326 340.131 462.307 340.412 462.286 340.696C462.279 340.803 462.269 340.91 462.262 341.015C462.245 341.246 462.229 341.477 462.208 341.708C462.163 342.285 462.113 342.862 462.056 343.438C462.039 343.603 462.025 343.772 462.006 343.936C461.878 345.225 461.731 346.502 461.561 347.767C461.511 348.167 461.454 348.565 461.399 348.963C461.361 349.23 461.321 349.497 461.283 349.764C461.231 350.121 461.177 350.476 461.12 350.831C461.07 351.169 461.013 351.508 460.959 351.848C460.897 352.218 460.838 352.585 460.774 352.954C460.722 353.259 460.667 353.559 460.612 353.862C460.53 354.319 460.444 354.777 460.359 355.232C460.33 355.387 460.3 355.541 460.271 355.696C460.212 355.994 460.153 356.294 460.093 356.59C460.003 357.038 459.911 357.486 459.814 357.933C459.771 358.141 459.726 358.353 459.679 358.56C459.634 358.777 459.586 358.991 459.539 359.208C459.461 359.558 459.385 359.911 459.302 360.256C458.738 362.732 458.122 365.131 457.47 367.433C457.29 368.076 457.107 368.71 456.922 369.336C456.892 369.444 456.861 369.546 456.83 369.651C456.742 369.941 456.655 370.23 456.569 370.518C456.543 370.604 456.517 370.692 456.489 370.778C456.28 371.469 456.067 372.152 455.851 372.822C455.678 373.356 455.51 373.885 455.337 374.404C455.223 374.745 455.112 375.081 455 375.412C454.886 375.745 454.775 376.076 454.661 376.401C454.55 376.729 454.436 377.051 454.325 377.373C454.265 377.535 454.211 377.692 454.154 377.854C453.962 378.385 453.775 378.907 453.59 379.419C453.498 379.672 453.405 379.924 453.31 380.172C453 381.001 452.692 381.804 452.393 382.581C452.31 382.788 452.23 382.998 452.149 383.203C451.4 385.092 450.682 386.812 450.016 388.339C449.964 388.459 449.909 388.58 449.86 388.697C449.798 388.833 449.741 388.966 449.682 389.097C449.589 389.311 449.497 389.519 449.402 389.724C449.201 390.172 449.006 390.598 448.821 391.003C448.682 391.308 448.546 391.599 448.416 391.878C448.319 392.082 448.224 392.283 448.132 392.476C448.068 392.614 448.004 392.747 447.94 392.878C447.809 393.145 447.689 393.398 447.572 393.636C447.478 393.831 447.388 394.012 447.302 394.186C447.098 394.596 446.921 394.951 446.767 395.254H409.53C394.876 374.616 405.686 346.104 424.038 332.652C436.774 323.315 421.274 310.123 422.8 295.127C423.685 286.431 430.78 280.201 440.128 275.719C441.195 277.034 442.306 278.34 443.46 279.631C444.302 280.572 445.11 281.523 445.885 282.483C446.02 282.648 446.153 282.814 446.283 282.981C446.312 283.019 446.342 283.053 446.371 283.091C446.503 283.26 446.639 283.429 446.769 283.601C447.139 284.072 447.497 284.547 447.85 285.025C448.025 285.264 448.2 285.5 448.369 285.738C448.765 286.288 449.151 286.839 449.525 287.394C449.696 287.641 449.862 287.892 450.03 288.144C450.056 288.185 450.08 288.223 450.106 288.261C450.265 288.504 450.421 288.747 450.578 288.99C450.751 289.257 450.917 289.524 451.085 289.793C451.253 290.06 451.417 290.329 451.578 290.598C451.846 291.041 452.109 291.485 452.362 291.93C452.459 292.099 452.557 292.266 452.649 292.435C453.467 293.881 454.225 295.339 454.927 296.809C455.005 296.969 455.081 297.131 455.154 297.296C455.323 297.651 455.486 298.008 455.645 298.365C455.853 298.827 456.057 299.29 456.252 299.754C456.356 299.997 456.455 300.238 456.555 300.479C456.659 300.724 456.756 300.972 456.854 301.22C457.209 302.108 457.546 302.999 457.861 303.893C457.956 304.157 458.046 304.422 458.138 304.686C458.214 304.908 458.29 305.129 458.363 305.353C458.411 305.496 458.458 305.642 458.508 305.784C458.664 306.268 458.816 306.749 458.963 307.233C459.131 307.783 459.29 308.334 459.446 308.887C459.769 310.037 460.06 311.188 460.328 312.344C460.392 312.618 460.456 312.896 460.515 313.17C460.546 313.313 460.579 313.456 460.608 313.599C460.65 313.792 460.691 313.98 460.729 314.173C460.819 314.612 460.906 315.05 460.992 315.491C461.023 315.662 461.056 315.832 461.087 316.003C461.127 316.208 461.165 316.418 461.198 316.623C461.241 316.863 461.283 317.099 461.324 317.34C461.364 317.578 461.404 317.814 461.44 318.052C461.468 318.238 461.497 318.424 461.525 318.607V318.61C461.57 318.908 461.615 319.205 461.658 319.503C461.698 319.784 461.734 320.065 461.771 320.347C461.779 320.382 461.781 320.418 461.788 320.456C461.824 320.733 461.857 321.014 461.892 321.29C461.963 321.886 462.03 322.479 462.091 323.075C462.184 323.966 462.26 324.859 462.321 325.75C462.345 326.065 462.366 326.379 462.385 326.696C462.404 326.975 462.419 327.251 462.433 327.528C462.449 327.79 462.459 328.054 462.473 328.316C462.516 329.233 462.542 330.153 462.558 331.07C462.563 331.311 462.565 331.549 462.568 331.79C462.573 332.14 462.575 332.488 462.575 332.838Z" fill="#B9CBF7"/>
<path opacity="0.3" d="M278.554 395.482H30.4387C25.7105 389.762 13.0567 372.596 5.64077 344.884C2.75166 334.084 0.651783 321.681 0.127998 307.729C6.18351 307.617 61.1453 307.371 84.5615 334.828C109.36 363.909 178.634 339.126 197.505 355.68C216.375 372.236 232.036 386.948 250.103 382.857C268.173 378.764 278.554 395.482 278.554 395.482Z" fill="#9DB0F4"/>
<path d="M137.326 265.489H136.108L136.12 265.393L136.487 262.129C136.499 262.024 136.587 261.943 136.693 261.943C136.708 261.943 136.72 261.943 136.731 261.946C136.8 261.953 136.862 261.984 136.912 262.029C136.968 262.082 137.009 262.155 137.016 262.239L137.326 265.489Z" fill="#9DB0F4"/>
<path d="M136.227 264.747H136.184L136.487 262.127C136.499 262.022 136.587 261.941 136.693 261.941C136.708 261.941 136.72 261.941 136.731 261.943C136.743 261.953 136.753 261.962 136.765 261.974C136.819 262.031 136.85 262.108 136.85 262.193L136.869 264.078C136.871 264.443 136.587 264.738 136.227 264.747Z" fill="#AFCDFB"/>
<path d="M138.104 280.017H135.755V384.237H138.104V280.017Z" fill="#9DB0F4"/>
<path d="M136.838 280.017H135.755V384.237H136.838V280.017Z" fill="#AEC3FF"/>
<path d="M140.666 367.607H133.188V395.182H140.666V367.607Z" fill="#9DB0F4"/>
<path d="M137.646 367.607H133.188V395.182H137.646V367.607Z" fill="#AEC3FF"/>
<path d="M141.014 267.061C141.014 268.35 139.09 269.394 136.717 269.394C136.537 269.394 136.357 269.389 136.182 269.374C134.06 269.232 132.418 268.25 132.418 267.061C132.418 265.872 134.06 264.891 136.182 264.748C136.357 264.736 136.535 264.729 136.717 264.729C139.092 264.731 141.014 265.774 141.014 267.061Z" fill="#9DB0F4"/>
<path d="M138.791 267.061C138.791 268.1 137.717 268.991 136.184 269.374C134.063 269.232 132.42 268.25 132.42 267.061C132.42 265.872 134.063 264.891 136.184 264.748C137.717 265.134 138.791 266.025 138.791 267.061Z" fill="#AEC3FF"/>
<path d="M140.659 282.073H133.181L130.543 269.31H142.891L140.659 282.073Z" fill="#AEC3FF"/>
<path d="M143.56 268.35H129.877V269.575H143.56V268.35Z" fill="#9DB0F4"/>
<path d="M138.478 268.35H129.877V269.575H138.478V268.35Z" fill="#AEC3FF"/>
<path d="M134.413 367.606H139.191L138.492 365.474C138.431 365.286 138.255 365.157 138.056 365.157H135.817C135.575 365.157 135.354 365.305 135.262 365.531L134.413 367.606Z" fill="#819DEA"/>
<path d="M131.427 269.932H141.974L139.914 281.404H133.859L131.427 269.932Z" fill="#C5D7FF"/>
<path d="M142.685 268.35H130.752L131.728 266.949H141.756L142.685 268.35Z" fill="#9DB0F4"/>
<path d="M139.746 268.35H130.752L131.728 266.949H138.817L139.746 268.35Z" fill="#AEC3FF"/>
<path d="M392.087 201.708H390.269L390.286 201.565L390.833 196.695C390.852 196.538 390.982 196.419 391.141 196.419C391.16 196.419 391.179 196.421 391.198 196.424C391.3 196.436 391.392 196.481 391.466 196.547C391.551 196.626 391.61 196.736 391.622 196.862L392.087 201.708Z" fill="#9DB0F4"/>
<path d="M390.447 200.603L390.383 200.605L390.835 196.695C390.854 196.538 390.985 196.419 391.144 196.419C391.163 196.419 391.181 196.421 391.2 196.424C391.217 196.438 391.234 196.452 391.248 196.469C391.328 196.555 391.376 196.669 391.376 196.795L391.402 199.607C391.409 200.145 390.982 200.588 390.447 200.603Z" fill="#AFCDFB"/>
<path d="M393.246 223.38H389.743V378.855H393.246V223.38Z" fill="#9DB0F4"/>
<path d="M391.359 223.38H389.743V378.855H391.359V223.38Z" fill="#AEC3FF"/>
<path d="M397.071 354.045H385.915V395.182H397.071V354.045Z" fill="#9DB0F4"/>
<path d="M392.563 354.045H385.915V395.182H392.563V354.045Z" fill="#AEC3FF"/>
<path d="M397.59 204.055C397.59 205.975 394.72 207.533 391.179 207.533C390.909 207.533 390.643 207.524 390.38 207.507C387.216 207.295 384.768 205.83 384.768 204.057C384.768 202.282 387.219 200.819 390.38 200.607C390.641 200.588 390.907 200.581 391.179 200.581C394.72 200.576 397.59 202.134 397.59 204.055Z" fill="#9DB0F4"/>
<path d="M394.272 204.055C394.272 205.604 392.67 206.933 390.383 207.505C387.219 207.293 384.77 205.827 384.77 204.055C384.77 202.28 387.221 200.817 390.383 200.605C392.67 201.177 394.272 202.506 394.272 204.055Z" fill="#AEC3FF"/>
<path d="M397.059 226.446H385.903L381.969 207.409H400.389L397.059 226.446Z" fill="#AEC3FF"/>
<path d="M401.382 205.973H380.974V207.798H401.382V205.973Z" fill="#9DB0F4"/>
<path d="M393.803 205.973H380.974V207.798H393.803V205.973Z" fill="#AEC3FF"/>
<path d="M387.742 354.045H394.872L393.829 350.865C393.736 350.583 393.473 350.393 393.179 350.393H389.84C389.477 350.393 389.15 350.612 389.013 350.948L387.742 354.045Z" fill="#819DEA"/>
<path d="M383.287 208.336H399.019L395.948 225.448H386.913L383.287 208.336Z" fill="#C5D7FF"/>
<path d="M400.081 205.973H382.28L383.737 203.888H398.697L400.081 205.973Z" fill="#9DB0F4"/>
<path d="M395.696 205.973H382.28L383.737 203.888H394.312L395.696 205.973Z" fill="#AEC3FF"/>
<path d="M104.307 395.161L31.4342 395.142C29.3888 392.828 23.9614 386.267 18.1784 375.655C22.9825 375.269 28.7133 375.528 33.2852 377.875C43.0688 382.888 41.7866 389.557 53.9024 387.112C66.0158 384.666 76.0103 383.641 81.4378 387.112C86.8629 390.581 90.8446 389.202 97.5921 389.18C103.188 389.161 104.143 393.633 104.307 395.161Z" fill="#A8D29F"/>
<path d="M113.121 374.995H44.78L41.6207 358.846H109.838L113.121 374.995Z" fill="#D36D1A"/>
<path d="M114.287 374.995H45.9461L42.7891 358.846H111.004L114.287 374.995Z" fill="#F49540"/>
<path d="M64.9492 376.97H46.2731C45.446 376.97 44.7776 376.296 44.7776 375.466V374.995H64.9492V376.97Z" fill="#D36D1A"/>
<path d="M126.867 374.995H64.7999V376.972H126.867V374.995Z" fill="#FFA255"/>
<path d="M48.8589 376.97L47.6881 381.594C47.6881 381.597 47.6881 381.597 47.6881 381.599L44.2254 395.299C44.178 395.478 44.0192 395.604 43.8391 395.604C43.4883 395.604 43.2205 395.28 43.2892 394.937L46.3798 378.955L46.7637 376.97H48.8589Z" fill="#FFA255"/>
<path d="M47.6881 381.597C47.8018 379.231 46.3774 378.957 46.3774 378.957L46.7614 376.972H48.8565L47.6881 381.597Z" fill="#D36D1A"/>
<path d="M63.6836 376.97L62.5128 381.594C62.5128 381.597 62.5128 381.597 62.5128 381.599L59.0502 395.299C59.0028 395.478 58.844 395.604 58.6638 395.604C58.3131 395.604 58.0452 395.28 58.114 394.937L61.2045 378.955L61.5885 376.97H63.6836Z" fill="#FFA255"/>
<path d="M62.5128 381.597C62.6266 379.231 61.2022 378.957 61.2022 378.957L61.5861 376.972H63.6813L62.5128 381.597Z" fill="#D36D1A"/>
<path d="M121.203 376.97L122.374 381.594C122.374 381.597 122.374 381.597 122.374 381.599L125.836 395.299C125.884 395.478 126.042 395.604 126.223 395.604C126.573 395.604 126.841 395.28 126.772 394.937L123.682 378.955L123.298 376.97H121.203Z" fill="#FFA255"/>
<path d="M122.374 381.597C122.26 379.231 123.684 378.957 123.684 378.957L123.3 376.972H121.205L122.374 381.597Z" fill="#D36D1A"/>
<path d="M106.378 376.97L107.549 381.594C107.549 381.597 107.549 381.597 107.549 381.599L111.011 395.299C111.059 395.478 111.218 395.604 111.398 395.604C111.749 395.604 112.016 395.28 111.948 394.937L108.857 378.955L108.473 376.97H106.378Z" fill="#FFA255"/>
<path d="M107.549 381.597C107.435 379.231 108.859 378.957 108.859 378.957L108.475 376.972H106.38L107.549 381.597Z" fill="#D36D1A"/>
<path d="M74.6926 314.052C71.9291 315.66 68.6821 316.682 65.1412 316.927C49.6292 317.902 44.2467 323.701 31.6901 335.983C24.2861 343.212 13.8009 344.212 5.64076 344.253C-0.343656 322.286 -2.92466 293.579 4.79464 258.591C7.97053 260.812 11.2389 263.244 14.6233 265.51C23.1579 271.261 32.4154 275.938 42.5498 273.453C52.7292 270.966 60.5836 271.114 66.741 273.113C74.5954 275.595 79.7361 281.006 83.4192 287.634C88.5124 296.75 84.0994 308.641 74.6926 314.052Z" fill="#A8D29F"/>
<path d="M328.782 63.9686C328.782 60.1089 331.894 56.9783 335.736 56.9783C339.576 56.9783 342.69 60.1065 342.69 63.9686C342.69 67.8284 339.576 70.959 335.736 70.959C331.894 70.959 328.782 67.8307 328.782 63.9686Z" fill="#F8FCFF"/>
<path d="M62.0127 55.7228C62.0127 55.7228 69.0163 44.4081 85.7655 45.6661C85.7655 45.6661 110.08 26.8083 136.009 43.1525C136.009 43.1525 163.57 39.1022 183.983 46.6596C197.592 51.6987 202.088 56.9831 202.088 56.9831L62.0127 55.7228Z" fill="#F8FCFF"/>
<path d="M68.3811 134.184C68.3811 134.184 72.0808 126.548 80.9282 127.397C80.9282 127.397 93.774 114.671 107.471 125.7C107.471 125.7 122.03 122.967 132.814 128.066C140.002 131.466 142.377 135.033 142.377 135.033L68.3811 134.184Z" fill="#F8FCFF"/>
<path opacity="0.5" d="M145.69 84.8016C145.69 84.8016 150.272 77.4014 161.226 78.2234C161.226 78.2234 177.129 65.889 194.089 76.5794C194.089 76.5794 212.116 73.9301 225.467 78.8738C234.369 82.1689 237.307 85.626 237.307 85.626L145.69 84.8016Z" fill="#F8FCFF"/>
<path opacity="0.5" d="M423.862 113.564C423.391 117.257 422.888 120.964 422.376 124.676L307.464 123.644C307.464 123.644 317.24 107.846 340.621 109.602C340.621 109.602 374.567 83.2745 410.765 106.092C410.765 106.092 416.141 105.303 424.362 104.865C424.407 107.698 424.244 110.597 423.862 113.564Z" fill="#F8FCFF"/>
<path d="M329.977 385.938C329.977 385.938 326.481 373.198 336.011 360.802C345.539 348.408 361.693 351.739 361.693 351.739C361.693 351.739 363.945 355.229 359.482 357.988C355.021 360.747 339.474 355.22 335.556 382.366C335.554 382.366 333.684 387.98 329.977 385.938Z" fill="#F99746"/>
<path d="M209.08 202.587C209.08 199.397 211.651 196.812 214.825 196.812C217.999 196.812 220.57 199.397 220.57 202.587C220.57 205.777 217.999 208.362 214.825 208.362C211.651 208.362 209.08 205.777 209.08 202.587Z" fill="#ED7D2B"/>
<path d="M348.186 378.368C348.186 373.892 351.796 370.263 356.249 370.263C360.702 370.263 364.312 373.892 364.312 378.368C364.312 382.845 360.702 386.474 356.249 386.474C351.796 386.474 348.186 382.845 348.186 378.368Z" fill="#9DB0F4"/>
<path d="M181.836 384.589C188.652 384.589 194.177 379.035 194.177 372.183C194.177 365.332 188.652 359.778 181.836 359.778C175.02 359.778 169.495 365.332 169.495 372.183C169.495 379.035 175.02 384.589 181.836 384.589Z" fill="#9DB0F4"/>
<path d="M201.141 207.93L181.577 351.526L186.457 352.198L206.021 208.601L201.141 207.93Z" fill="#131375"/>
<path d="M189.107 212.908V207.359L214.218 201.839L215.868 206.504L189.107 212.908Z" fill="#ED7D2B"/>
<path d="M182.239 395.728C169.569 395.728 159.261 385.366 159.261 372.629C159.261 359.892 169.569 349.53 182.239 349.53C194.909 349.53 205.217 359.892 205.217 372.629C205.217 385.366 194.909 395.728 182.239 395.728ZM182.239 354.202C172.131 354.202 163.909 362.47 163.909 372.629C163.909 382.79 172.133 391.056 182.239 391.056C192.347 391.056 200.569 382.788 200.569 372.629C200.569 362.467 192.345 354.202 182.239 354.202Z" fill="#060633"/>
<path d="M356.247 395.249C346.987 395.249 339.455 387.675 339.455 378.369C339.455 369.06 346.987 361.488 356.247 361.488C365.507 361.488 373.039 369.06 373.039 378.369C373.041 387.677 365.507 395.249 356.247 395.249ZM356.247 365.2C349.023 365.2 343.147 371.107 343.147 378.369C343.147 385.631 349.023 391.537 356.247 391.537C363.471 391.537 369.346 385.631 369.346 378.369C369.346 371.107 363.471 365.2 356.247 365.2Z" fill="#060633"/>
<path d="M331.463 388.042H217.406C215.368 388.042 213.702 386.367 213.702 384.318V382.536C213.702 380.487 215.368 378.812 217.406 378.812H331.463C333.501 378.812 335.167 380.487 335.167 382.536V384.318C335.167 386.367 333.501 388.042 331.463 388.042Z" fill="#131375"/>
<path d="M332.79 388.094C332.018 388.094 331.297 387.603 331.039 386.824C330.716 385.852 331.238 384.801 332.205 384.475L355.661 376.605C356.628 376.281 357.673 376.805 357.998 377.778C358.321 378.75 357.799 379.8 356.832 380.127L333.376 387.996C333.181 388.063 332.985 388.094 332.79 388.094Z" fill="#131375"/>
<path d="M188.596 315.786L227.908 379.009H237.89L190.681 304.038L188.596 315.786Z" fill="#131375"/>
<path d="M190.835 352.346L187.23 351.243L183.467 363.663C182.22 367.78 178.281 370.461 174.017 370.099L162.082 369.086L161.764 372.862L173.738 373.877C178.696 374.297 183.178 377.018 185.858 381.235L192.193 391.203L195.369 389.164L189.25 379.536C186.391 375.038 185.635 369.508 187.183 364.404L190.835 352.346Z" fill="#060633"/>
<path d="M361.655 365.436L359.311 364.719L356.865 372.789C356.055 375.464 353.497 377.206 350.724 376.97L342.97 376.312L342.763 378.766L350.544 379.426C353.768 379.7 356.678 381.466 358.42 384.206L362.537 390.684L364.601 389.359L360.624 383.103C358.766 380.182 358.276 376.586 359.283 373.27L361.655 365.436Z" fill="#060633"/>
<path d="M354.064 378.068C354.064 377.044 354.891 376.212 355.91 376.212C356.929 376.212 357.756 377.044 357.756 378.068C357.756 379.093 356.929 379.924 355.91 379.924C354.891 379.924 354.064 379.093 354.064 378.068Z" fill="#F99746"/>
<path d="M179.987 372.183C179.987 371.159 180.815 370.327 181.834 370.327C182.853 370.327 183.68 371.159 183.68 372.183C183.68 373.208 182.853 374.039 181.834 374.039C180.815 374.039 179.987 373.208 179.987 372.183Z" fill="#F99746"/>
<path d="M167.756 348.241C167.756 348.241 178.525 340.662 193.336 345.535C208.144 350.407 210.433 366.823 210.433 366.823C210.433 366.823 207.916 370.125 203.837 366.823C199.756 363.521 199.728 346.943 172.972 352.33C172.972 352.33 167.082 352.437 167.756 348.241Z" fill="#F99746"/>
<path d="M270.13 64.5715C270.13 64.5715 251.53 94.6344 251.53 102.795C251.53 110.955 257.453 120.337 257.453 120.337L276.269 104.632L285.635 87.7417L270.13 64.5715Z" fill="#829CE8"/>
<path d="M284.825 108.668C284.825 108.668 278.547 120.042 267.329 118.017C267.329 118.017 264.023 113.008 263.205 108.996C263.106 108.503 263.006 108.024 262.909 107.569C261.97 103.057 261.321 100.548 261.321 100.548C261.321 100.548 261.323 100.545 261.33 100.543C261.766 100.25 275.977 90.8199 276.067 91.3536C278.193 103.643 284.825 108.668 284.825 108.668Z" fill="#ED975D"/>
<path d="M256.439 101.243C256.439 101.243 273.695 107.05 277.127 96.1925C280.559 85.3329 285.097 78.7714 274.224 74.6043C263.352 70.4373 259.889 73.8943 257.868 77.2394C255.846 80.5821 252.037 99.4518 256.439 101.243Z" fill="#FFB27D"/>
<path d="M236.869 379.002H265.303C265.575 378.95 265.781 378.888 265.907 378.826C267.805 377.87 267.211 370.563 266.983 368.307C266.94 367.89 266.907 367.645 266.907 367.645C266.907 367.645 256.91 359.606 255.533 365.762C255.491 365.955 255.438 366.144 255.386 366.33V366.332C253.651 372.09 245.892 374.706 241.41 375.436C237.985 375.993 237.096 377.999 236.869 379.002Z" fill="#A9453D"/>
<path d="M292.525 379.002H320.959C321.231 378.95 321.438 378.888 321.563 378.826C323.462 377.87 322.867 370.563 322.639 368.307C322.594 367.89 322.563 367.645 322.563 367.645C322.563 367.645 312.566 359.606 311.189 365.762C311.147 365.955 311.095 366.144 311.042 366.33V366.332C309.308 372.09 301.548 374.706 297.066 375.436C293.641 375.993 292.755 377.999 292.525 379.002Z" fill="#A9453D"/>
<path d="M242.6 214.176C242.6 214.176 244.119 233.219 245.904 256.111C248.328 287.208 251.246 325.405 251.535 332.64C252.033 345.206 255.386 366.325 255.386 366.325C255.386 366.325 257.408 369.656 266.907 367.642C266.907 367.642 276.748 339.376 279.165 309.018C279.203 308.52 279.241 308.019 279.277 307.517C281.526 276.613 285.024 211.536 285.024 211.536L242.6 214.176Z" fill="#F99746"/>
<path d="M242.6 214.176C242.6 214.176 244.119 233.219 245.904 256.111L279.165 309.018C279.203 308.52 279.241 308.019 279.277 307.517C281.526 276.613 285.024 211.536 285.024 211.536L242.6 214.176Z" fill="#ED7D2B"/>
<path d="M249.535 216.437C249.535 216.437 268.182 288.225 286.178 320.637C304.174 353.049 310.602 367.478 310.602 367.478C310.602 367.478 321.627 370.47 322.566 367.642C322.566 367.642 313.14 290.498 305.835 272.458C302.053 263.113 300.287 234.406 299.913 225.359C299.538 216.315 293.215 204 293.215 204L249.535 216.437Z" fill="#F99746"/>
<path d="M243.391 244.41C277.992 261.622 315.873 256.049 315.797 254.865C315.735 253.571 301.38 176.827 296.41 154.443C291.781 133.601 285.524 115.339 279.732 111.167C278.971 110.643 274.413 112.997 270.223 115.181C266.355 117.195 262.449 117.488 258.74 116.813C258.74 116.813 256.858 119.327 255.751 122.048C253.426 127.756 241.275 166.739 241.116 173.484C241.111 173.885 241.102 174.287 241.092 174.688C241.05 176.639 241.014 178.597 240.986 180.544C240.953 182.767 243.003 244.217 243.391 244.41Z" fill="#9DB0F4"/>
<path d="M242.097 215.136C276.129 195.949 272.759 151.782 272.759 151.782L240.983 180.544C240.95 182.767 240.931 184.973 240.926 187.156C240.924 188.795 240.931 190.42 240.948 192.016L240.953 192.23C240.91 192.824 240.922 193.472 240.936 194.065C240.955 196.741 242.064 212.701 242.097 215.136Z" fill="#7A96E5"/>
<path d="M207.784 201.968C206.091 199.023 207.416 197.743 207.416 197.743C207.416 197.743 235.52 176.992 237.739 174.876C239.957 172.76 250.985 138.323 250.985 138.323C250.985 138.323 254.846 124.366 262.923 123.065C269.943 121.933 274.662 125.555 277.693 129.722C281.305 134.687 281.471 141.387 278.186 146.578C270.815 158.231 255.96 181.354 251.708 185.249C242.247 193.924 211.758 204.357 211.758 204.357C211.758 204.357 209.113 204.281 207.784 201.968Z" fill="#FFB27D"/>
<path d="M276.245 99.154C276.473 99.3303 280.161 100.855 288.669 87.1294C290.006 84.9755 291.224 80.158 288.989 75.5931C286.756 71.0305 277.741 66.7682 270.128 64.5691C262.515 62.3724 260.252 66.5823 258.022 70.8185C255.68 75.2643 249.8 78.557 249.8 78.557C256.138 82.9289 264.677 78.3092 267.386 79.4528C270.093 80.594 270.671 85.1018 270.751 86.5385C270.83 87.9728 271.043 89.1807 274.667 88.242C278.288 87.3033 275.793 93.3835 275.122 94.5295C275.124 94.5295 274.354 97.6721 276.245 99.154Z" fill="#233862"/>
<path d="M270.13 64.5715C270.13 64.5715 279.644 80.9205 279.947 87.9061C280.251 94.8917 258.738 116.811 258.738 116.811C258.738 116.811 277.184 121.679 284.775 116.811C284.775 116.811 302.33 92.228 302.33 87.7393C302.333 83.2554 292.051 64.836 270.13 64.5715Z" fill="#9DB0F4"/>
<path d="M253.341 213.509C253.341 213.509 270.043 216.249 280.533 214.714L280.298 231.585L266.938 236.729L253.341 229.15V213.509Z" fill="#7A96E5"/>
<path d="M207.352 197.743C207.352 197.743 196.583 198.291 194.428 200.321C192.274 202.351 188.034 206.211 191.236 206.892L198.967 205.194C202.915 206.132 204.345 208.284 206.859 206.942C209.374 205.601 212.123 204.129 212.123 204.129L207.352 197.743Z" fill="#FFB27D"/>
<path d="M181.561 209.361C181.561 206.17 184.133 203.585 187.306 203.585C190.48 203.585 193.051 206.17 193.051 209.361C193.051 212.551 190.48 215.136 187.306 215.136C184.133 215.136 181.561 212.551 181.561 209.361Z" fill="#F99746"/>
<path d="M337.265 168.705C337.213 169.551 337.108 170.292 336.95 170.904C334.693 179.574 305.504 186.122 302.235 182.984C301.621 182.398 300.991 181.545 300.344 180.477C292.032 166.742 281.493 116.73 285.643 119.692C285.643 119.692 293.4 117.257 299.768 116.649L300.894 116.561L300.934 116.559C302.951 116.439 304.757 116.542 306.037 117.021C311.467 119.046 315.799 133.294 315.799 133.294C315.799 133.294 320.272 132.655 324.256 133.146C324.746 133.205 325.23 133.282 325.697 133.382C325.699 133.382 325.699 133.382 325.699 133.382C326.92 133.639 328.029 134.032 328.856 134.628C332.262 137.07 337.853 159.323 337.265 168.705Z" fill="#F99746"/>
<path d="M289.316 118.977C289.316 118.977 279.307 109.363 262.551 112.789L258.74 116.813C258.74 116.813 275.558 112.749 284.825 121.64L289.316 118.977Z" fill="#F99746"/>
<path d="M260.214 164.767C260.214 164.767 270.221 182.631 297.543 173.761L300.342 180.472C300.342 180.472 267.858 189.76 256.889 171.779L260.214 164.767Z" fill="#F99746"/>
<path d="M263.812 120.337C263.812 120.337 256.877 119.541 254.32 126.039C252.492 130.677 248.411 152.482 239.192 168.383C235.497 174.754 221.419 187.191 215.564 191.709C215.564 191.709 217.695 198.613 222.284 200.452C222.284 200.452 244.486 202.716 259.069 186.024C263.243 181.287 288.06 140.641 282.943 132.25C277.831 123.856 263.812 120.337 263.812 120.337Z" fill="#9DB0F4"/>
<path d="M300.929 116.556C299.936 117.516 297.998 120.075 298.642 124.943C299.507 131.476 301.595 136.15 301.617 136.198L300.892 136.536C300.87 136.488 298.735 131.714 297.853 125.052C297.277 120.707 298.645 118.043 299.763 116.647L300.929 116.556Z" fill="#ED7D2B"/>
<path d="M329.162 168.91L328.403 169.153C328.071 168.086 320.317 142.94 320.85 138.304C321.186 135.383 322.919 133.877 324.251 133.141C324.741 133.201 325.225 133.277 325.692 133.377C324.76 133.67 322.054 134.821 321.639 138.399C321.127 142.864 329.083 168.648 329.162 168.91Z" fill="#ED7D2B"/>
<path d="M294.357 157.831L301.254 177.487C301.254 177.487 310.81 177.775 316.648 173.761L310.279 153.562C310.279 153.564 304.973 157.652 294.357 157.831Z" fill="#ED7D2B"/>
<path d="M337.265 168.705C337.213 169.551 337.108 170.292 336.95 170.904C334.693 179.574 305.504 186.121 302.235 182.984C301.621 182.398 300.991 181.545 300.344 180.477C300.605 180.465 317.174 179.886 337.265 168.705Z" fill="#ED7D2B"/>
<path d="M294.357 157.831L296.384 163.606L305.501 164.233L312.055 159.194L310.279 153.562C310.279 153.564 299.996 155.696 294.357 157.831Z" fill="#EF873A"/>
<path d="M304.131 162.499C304.131 162.179 304.39 161.92 304.707 161.92C305.025 161.92 305.283 162.179 305.283 162.499C305.283 162.818 305.025 163.077 304.707 163.077C304.39 163.077 304.131 162.818 304.131 162.499Z" fill="#131375"/>
<path d="M467.362 397H8.12458C7.77382 397 7.48704 396.712 7.48704 396.359V395.804C7.48704 395.451 7.77382 395.163 8.12458 395.163H467.362C467.713 395.163 468 395.451 468 395.804V396.359C468 396.709 467.713 397 467.362 397Z" fill="#2E3552"/>
</svg>
