<svg width="2532" height="2698" viewBox="0 0 2532 2698" fill="none" xmlns="http://www.w3.org/2000/svg">
<path d="M204.764 2335.59C198.759 2335.03 192.959 2333.11 187.798 2329.99C182.638 2326.87 178.251 2322.62 174.965 2317.56C145.167 2272.48 66.0941 2143.86 121.631 2126.11C130.446 2123.25 139.434 2120.95 148.539 2119.22C198.029 2110.49 248.969 2115.54 295.776 2133.84C342.584 2152.13 383.452 2182.95 413.904 2222.93C422.02 2233.4 429.292 2244.49 435.651 2256.1C438.056 2260.61 439.426 2265.6 439.663 2270.7C439.9 2275.81 438.998 2280.9 437.021 2285.61C435.044 2290.32 432.042 2294.54 428.234 2297.94C424.426 2301.35 419.907 2303.87 415.005 2305.31C366.006 2319.76 275.234 2341.85 204.764 2335.59Z" fill="#DC4908"/>
<path d="M518.312 2530.63C518.312 2622.43 454.077 2696.85 374.921 2696.85C295.765 2696.85 231.621 2622.43 231.621 2530.63V2529.35C232.258 2438.37 296.22 2364.4 374.921 2364.4C423.597 2364.4 466.542 2392.42 492.382 2435.55C509.576 2464.27 518.546 2497.16 518.312 2530.63Z" fill="#33323D"/>
<path d="M2488.27 2455.81C2488.27 2589.52 2419.1 2697.98 2333.84 2697.98C2248.57 2697.98 2179.55 2589.52 2179.55 2455.81C2179.55 2380.11 2201.57 2312.73 2236.12 2268.41C2262.82 2234 2296.68 2213.36 2333.84 2213.36C2338.95 2213.35 2344.06 2213.71 2349.12 2214.46C2379.74 2219.21 2407.89 2238 2430.53 2266.76C2433.72 2270.71 2436.71 2274.82 2439.47 2279.08C2469.48 2323.54 2488.27 2386.3 2488.27 2455.81Z" fill="#33323D"/>
<path d="M2396.34 2178.6L2261.39 2192.09L2244.05 2047.85L2242.88 2038.42L2218.38 1835.13L2217.28 1825.7L2093.34 797.343L2090.65 775.459L2016.74 161.665L2014.95 147.006L2007.24 82.8674L2002.08 40.2686H2110.13L2115.98 84.3814L2116.94 91.4008L2119.62 111.152L2212.32 803.881L2214.8 822.462L2347 1810.08L2375.97 2026.51L2396.34 2178.6Z" fill="#33323D"/>
<path d="M2326.07 2157C2326.07 2157 2216.3 2150.11 2227.1 2272.2C2234.88 2360.22 2251.95 2457.6 2260.89 2505.29C2262.41 2513.28 2266.96 2520.37 2273.6 2525.07C2280.23 2529.76 2288.43 2531.7 2296.47 2530.47C2304.47 2529.26 2311.7 2525 2316.63 2518.59C2321.57 2512.18 2323.84 2504.11 2322.97 2496.07L2301.08 2287.96C2299.2 2272.73 2301.39 2257.28 2307.43 2243.18C2313.48 2229.08 2323.16 2216.84 2335.49 2207.71C2361.44 2189.48 2396.05 2188.38 2424.96 2268.41L2444.78 2273.85C2444.78 2273.85 2470.1 2142.54 2326.07 2157Z" fill="#504F60"/>
<path d="M2005.28 302.211C2019.52 431.797 2049.6 705.764 2064.46 840.993C2066.83 862.674 2077.13 882.715 2093.38 897.271C2109.62 911.826 2130.67 919.87 2152.48 919.859H2191.09C2209.52 920.107 2227.56 914.487 2242.59 903.811C2257.62 893.135 2268.86 877.956 2274.7 860.468C2277.09 853.039 2278.32 845.287 2278.35 837.483C2278.35 796.192 2234.03 422.162 2220.27 306.822C2218.95 295.393 2215.4 284.335 2209.8 274.285C2204.2 264.234 2196.67 255.389 2187.65 248.257C2169.54 233.898 2149.9 221.596 2129.08 211.576C2067.21 182.81 1997.84 234.356 2005.28 302.211Z" fill="#DC4908"/>
<path d="M2262.08 2069.67C2315.16 2409.47 1772.07 2403.21 1772.07 2403.21L590.925 2381.01C526.169 2379.79 461.962 2386.68 405.816 2400.87L178.307 2458.33C157.748 2463.52 134.104 2465.89 110.44 2465.12C86.7763 2464.35 64.1837 2460.49 45.5937 2454.03C21.4261 2445.62 5.69228 2433.41 1.73385 2420C-2.22458 2406.6 5.90461 2393.04 24.3944 2382.21L120.569 2326.03C140.472 2314.42 166.625 2305.14 196.698 2299.03C226.77 2292.91 259.827 2290.15 292.924 2291L1528.88 2321.88C2028.71 2325.81 2198.31 1835.96 2198.31 1835.96L2401.83 1835.96L2448 2069.37L2262.6 2069.37L2262.08 2069.67Z" fill="#504F60"/>
<path d="M1591.14 0.281383L2503.54 23.1293C2510.94 23.3967 2517.94 26.5234 2523.07 31.8507C2528.21 37.178 2531.07 44.29 2531.07 51.689C2531.07 55.4655 2530.32 59.2044 2528.86 62.6883C2527.4 66.1721 2525.27 69.3315 2522.58 71.9826C2519.89 74.6337 2516.7 76.7236 2513.2 78.1309C2509.69 79.5382 2505.94 80.2348 2502.17 80.18L1589.84 67.4485C1582.35 67.34 1575.21 64.2906 1569.96 58.9592C1564.7 53.6278 1561.76 46.443 1561.76 38.9577V28.7724C1561.76 24.9545 1562.52 21.175 1564.01 17.6587C1565.5 14.1424 1567.68 10.9609 1570.42 8.30324C1573.16 5.64557 1576.4 3.56596 1579.97 2.18793C1583.53 0.809897 1587.33 0.161495 1591.14 0.281383Z" fill="#33323D"/>
</svg>
